<svg viewBox="0 0 80.26 80.35" xmlns="http://www.w3.org/2000/svg" xmlns:xlink="http://www.w3.org/1999/xlink" id="Layer_1" overflow="hidden"><defs><linearGradient x1="0" y1="53.58" x2="80.26" y2="53.58" gradientUnits="userSpaceOnUse" id="linear-gradient"><stop offset="0" stop-color="#82D2E3"/><stop offset="1" stop-color="#5A68B1"/></linearGradient><linearGradient x1="5.3" y1="18.77" x2="75" y2="18.77" xlink:href="#linear-gradient" id="linear-gradient-2"></linearGradient></defs><path d="M20.03 77.64 22.74 77.64 22.74 76.4C22.74 62.4 22.74 48.41 22.74 34.41 22.74 32.41 22.94 32.22 24.98 32.22 28.75 32.22 32.52 32.22 36.29 32.22 38.6 32.22 38.8 32.41 38.8 34.7 38.8 48.52 38.8 62.34 38.8 76.17 38.8 76.62 38.8 77.07 38.8 77.61L41.46 77.61 41.46 76.32C41.46 66.86 41.46 57.4 41.46 47.94 41.46 45.87 41.75 45.58 43.8 45.58 47.6 45.58 51.41 45.58 55.21 45.58 57.31 45.58 57.51 45.78 57.51 47.84 57.51 57.33 57.51 66.83 57.51 76.32 57.51 76.73 57.51 77.14 57.51 77.62L60.22 77.62 60.22 76.43C60.22 60.62 60.22 44.81 60.22 28.99 60.22 27.15 60.58 26.78 62.41 26.78 66.28 26.78 70.16 26.78 74.03 26.78 75.94 26.78 76.3 27.13 76.3 29.03 76.3 44.74 76.3 60.44 76.3 76.15 76.3 76.6 76.3 77.05 76.3 77.63L80.24 77.63 80.24 80.34 0 80.34 0 77.74 3.95 77.74C3.95 77.22 3.95 76.82 3.95 76.42 3.95 68.67 3.95 60.92 3.95 53.17 3.95 51.28 4.32 50.91 6.21 50.9 10.12 50.9 14.03 50.9 17.94 50.9 19.63 50.9 20.03 51.31 20.03 52.99 20.03 60.81 20.03 68.63 20.03 76.45 20.03 76.83 20.03 77.2 20.03 77.63ZM73.56 77.64 73.56 29.6 63 29.6 63 77.65 73.56 77.65ZM36.05 77.64 36.05 34.95 25.46 34.95 25.46 77.64 36.05 77.64ZM54.76 77.64 54.76 48.28C54.37 48.26 54.06 48.23 53.75 48.23 50.92 48.23 48.1 48.27 45.28 48.21 44.36 48.19 44.11 48.45 44.11 49.38 44.15 58.45 44.13 67.52 44.13 76.58 44.13 76.92 44.16 77.26 44.18 77.65L54.75 77.65ZM6.71 53.68 6.71 77.64 17.25 77.64 17.25 53.68 6.71 53.68Z" fill="url(#linear-gradient)"/><path d="M44.68 20.8C46.68 19 48.9 18.41 51.43 19.08 51.46 19.08 51.5 19.09 51.53 19.11 52.98 20.19 53.86 19.32 54.86 18.27 57.17 15.84 59.56 13.5 61.95 11.15 62.47 10.64 62.58 10.28 62.25 9.55 61.14 7.1 61.33 4.7 63.03 2.57 64.81 0.34 67.17-0.46 69.93 0.23 72.57 0.89 74.26 2.67 74.82 5.29 75.39 7.95 74.56 10.3 72.37 11.98 70.23 13.63 67.84 13.9 65.4 12.71 64.74 12.39 64.41 12.43 63.91 12.94 61.2 15.7 58.45 18.44 55.7 21.16 55.26 21.59 55.19 21.91 55.48 22.5 56.85 25.34 56.26 28.39 54.02 30.42 51.8 32.43 48.74 32.73 46.08 31.19 43.59 29.75 42.38 26.82 43.09 23.79 43.22 23.22 43.11 22.93 42.65 22.59 40.42 20.91 38.21 19.21 36.01 17.49 35.51 17.09 35.19 17.11 34.66 17.49 32.52 19 30.21 19.2 27.84 18.06 27.22 17.76 26.88 17.83 26.41 18.31 23.75 21.02 21.06 23.71 18.34 26.37 17.77 26.92 17.72 27.31 18.05 28.06 19.15 30.6 18.87 33.06 17.05 35.19 15.22 37.33 12.8 37.98 10.13 37.24 7.52 36.51 5.9 34.64 5.42 32.01 4.95 29.37 5.86 27.09 8.04 25.48 10.11 23.95 12.42 23.7 14.75 24.8 15.55 25.18 15.96 25.01 16.51 24.45 19.1 21.81 21.71 19.19 24.36 16.6 24.93 16.04 25.07 15.64 24.7 14.84 23.56 12.38 23.87 10 25.57 7.88 27.25 5.8 29.52 4.97 32.1 5.53 34.84 6.13 36.7 7.89 37.23 10.69 37.44 11.78 37.13 12.96 37.12 14.09 37.12 14.45 37.16 14.96 37.39 15.14 39.76 17.03 42.18 18.86 44.67 20.78ZM68.26 10.71C70.47 10.71 72.26 8.95 72.28 6.75 72.3 4.58 70.51 2.75 68.32 2.72 66.08 2.69 64.24 4.51 64.25 6.74 64.26 8.93 66.05 10.71 68.25 10.71ZM34.74 12.06C34.73 9.84 32.96 8.08 30.75 8.09 28.56 8.09 26.75 9.89 26.73 12.06 26.72 14.27 28.59 16.12 30.8 16.09 33.01 16.06 34.75 14.27 34.74 12.06ZM12.04 34.79C14.27 34.77 16.03 33.01 16.01 30.81 15.99 28.64 14.17 26.81 12.01 26.8 9.84 26.79 7.94 28.71 7.98 30.89 8.02 33.09 9.8 34.81 12.04 34.79ZM45.52 25.44C45.5 27.65 47.23 29.41 49.45 29.46 51.62 29.51 53.49 27.72 53.52 25.55 53.56 23.31 51.78 21.52 49.51 21.51 47.27 21.51 45.53 23.21 45.51 25.43Z" fill="url(#linear-gradient-2)"/></svg>