<svg viewBox="0 0 46.09 53.68" xmlns="http://www.w3.org/2000/svg" xmlns:xlink="http://www.w3.org/1999/xlink" id="Layer_1" overflow="hidden"><defs><linearGradient x1="0" y1="26.84" x2="46.09" y2="26.84" gradientUnits="userSpaceOnUse" id="linear-gradient"><stop offset="0" stop-color="#82D2E3"/><stop offset="1" stop-color="#5A68B1"/></linearGradient></defs><path d="M14.64 27.82C13.37 25.98 12.59 24.03 12.45 21.86 12.21 18.21 13.33 15.06 16 12.52 17.9 10.71 19.85 8.97 21.79 7.2 22.57 6.49 23.22 6.51 23.95 7.28 24.77 8.14 25.56 9.03 26.42 9.97 26.71 9.71 26.93 9.5 27.16 9.3 30.18 6.53 33.21 3.76 36.23 0.99 36.36 0.87 36.5 0.74 36.63 0.62 37.46-0.13 38.27-0.2 38.82 0.43 39.35 1.05 39.22 1.8 38.41 2.54 35.24 5.45 32.06 8.36 28.88 11.27 28.67 11.46 28.47 11.65 28.23 11.87 29.99 13.79 31.7 15.66 33.49 17.61 33.71 17.4 33.94 17.2 34.16 17 37.38 14.06 40.59 11.11 43.8 8.17 44.26 7.75 44.8 7.47 45.34 7.81 45.7 8.04 46.12 8.55 46.1 8.92 46.08 9.39 45.73 9.94 45.37 10.28 42.28 13.16 39.15 16.01 36.03 18.87L35.24 19.59C35.99 20.41 36.72 21.2 37.44 22 37.68 22.27 38.03 22.57 38.05 22.87 38.08 23.34 38.03 23.99 37.73 24.27 35.61 26.3 33.52 28.37 31.23 30.2 27.11 33.49 21.21 33.4 16.99 30.2 16.81 30.06 16.62 29.93 16.38 29.75 16.18 29.94 15.99 30.11 15.8 30.28 11.93 33.82 8.06 37.36 4.2 40.9 2.62 42.35 2.23 44.04 3.05 45.8 4.05 47.97 7.02 48.69 8.85 47.15 10.16 46.05 11.39 44.86 12.66 43.71 15.72 40.93 19.67 41.1 22.46 44.15 24.58 46.46 26.71 48.78 28.82 51.1 29.04 51.35 29.24 51.63 29.39 51.92 29.66 52.45 29.52 52.93 29.1 53.33 28.65 53.75 28.12 53.81 27.6 53.49 27.32 53.32 27.08 53.07 26.85 52.82 24.72 50.51 22.61 48.18 20.48 45.87 18.68 43.91 16.44 43.82 14.46 45.62 13.27 46.7 12.1 47.8 10.9 48.88 8.16 51.33 4.06 51.09 1.63 48.36-0.59 45.87-0.56 41.9 1.85 39.6 5.81 35.85 9.86 32.21 13.88 28.53 14.13 28.3 14.37 28.08 14.65 27.83ZM22.78 9.91C22.71 9.91 22.68 9.91 22.66 9.93 20.66 11.84 18.45 13.58 16.72 15.72 13.93 19.17 14.49 24.29 17.84 27.52 21.1 30.66 26 30.84 29.33 28.3 31.3 26.8 33.03 24.98 34.87 23.3 34.9 23.27 34.88 23.2 34.89 23.15 30.84 18.73 26.8 14.32 22.77 9.92Z" fill="url(#linear-gradient)"/></svg>