<svg xmlns="http://www.w3.org/2000/svg" xmlns:xlink="http://www.w3.org/1999/xlink" width="103.69" height="31.642" viewBox="0 0 103.69 31.642">
  <defs>
    <clipPath id="clip-path">
      <path id="Path_2085" data-name="Path 2085" d="M243.866.32V12.1c0,1.753.886,2.769,2.924,2.769h3.132c1.985,0,2.9-1.017,2.9-2.769V.32h3.031V12.336c0,3.708-1.961,5.616-5.722,5.616h-3.708c-3.762,0-5.693-1.907-5.693-5.616V.32Zm-4.5,17.69h-2.74V10.893h-3.108V18.01h-7.707c-.837,0-1.176-.315-1.176-.862a2.751,2.751,0,0,1,.232-.905S232.523.02,232.538.01h-3.587l-6.894,14.417a8.123,8.123,0,0,0-.867,3.273c0,1.985,1.1,3.055,4.076,3.055h8.254v6.328h3.108V20.75h2.74Z" transform="translate(-221.19 -0.01)"/>
    </clipPath>
  </defs>
  <g id="Logo_1" data-name="Logo 1" transform="translate(-78.61)">
    <g id="Group_2606" data-name="Group 2606" transform="translate(78.61 0)">
      <g id="Group_2600" data-name="Group 2600" transform="translate(0.053 0.315)">
        <path id="Path_2070" data-name="Path 2070" d="M93.505.65V3.734H86.689c-3.4,0-4.885,1.7-4.885,5.747,0,4.023,1.462,5.722,4.885,5.722h6.816v3.084H86.689c-5.146,0-7.969-2.9-7.969-8.8,0-5.931,2.847-8.83,7.969-8.83h6.816Z" transform="translate(-78.72 -0.65)" fill="#fff"/>
      </g>
      <g id="Group_2601" data-name="Group 2601" transform="translate(16.881 0)">
        <path id="Path_2071" data-name="Path 2071" d="M116.874,17.947H113.48l6.192-15.676C120.326.625,121.526,0,123.38,0c1.83,0,3.031.625,3.655,2.271l5.955,15.676h-3.423L124.213,3.762a.841.841,0,0,0-.862-.6.888.888,0,0,0-.886.6Z" transform="translate(-113.48 0)" fill="#fff"/>
      </g>
      <g id="Group_2602" data-name="Group 2602" transform="translate(35.82 0.315)">
        <path id="Path_2072" data-name="Path 2072" d="M166,.65V3.734h-5.146V18.287h-3.108V3.729H152.6V.65Z" transform="translate(-152.6 -0.65)" fill="#fff"/>
      </g>
      <g id="Group_2603" data-name="Group 2603" transform="translate(51.138 0.315)">
        <path id="Path_2073" data-name="Path 2073" d="M198.652.65V3.734h-9.039c-1.593,0-2.3.862-2.3,2.091,0,1.07.547,2.091,2.614,2.091h4.13c4.807,0,5.931,2.663,5.931,5.2,0,2.977-1.593,5.17-5.616,5.17H184.55V15.2h9.929c1.67,0,2.43-.915,2.43-2.193,0-1.147-.6-2.193-2.769-2.193h-4.1c-4.7,0-5.8-2.638-5.8-5.093,0-2.924,1.569-5.069,5.485-5.069h8.927Z" transform="translate(-184.24 -0.65)" fill="#fff"/>
      </g>
      <g id="Group_2604" data-name="Group 2604" transform="translate(0 24.24)">
        <path id="Path_2074" data-name="Path 2074" d="M82.347,50.33c1.685,0,2.4.794,2.4,1.961a1.533,1.533,0,0,1-1.026,1.588,1.614,1.614,0,0,1,1.06,1.632c0,1.143-.712,1.97-2.4,1.97H79.205c-.4,0-.6-.189-.6-.581V50.916c0-.392.189-.581.6-.581h3.142ZM79.84,53.351h2.542c.741,0,1.1-.276,1.1-.857,0-.562-.329-.934-1.089-.934H79.98c-.087,0-.14.044-.14.126Zm0,2.774c0,.082.053.116.14.116h2.435c.75,0,1.1-.349,1.1-.93,0-.605-.373-.92-1.1-.92H79.84Z" transform="translate(-78.61 -50.204)" fill="#fff"/>
        <path id="Path_2075" data-name="Path 2075" d="M94.35,50.33l2,3.06,2.024-3.06H99.86L96.979,54.4v3.084H95.721V54.4L92.84,50.33Z" transform="translate(-85.951 -50.204)" fill="#fff"/>
        <path id="Path_2076" data-name="Path 2076" d="M120.713,50.325v1.249h-2.764c-1.375,0-1.98.687-1.98,2.329s.6,2.319,1.98,2.319h2.764v1.249h-2.764c-2.087,0-3.229-1.176-3.229-3.568s1.152-3.583,3.229-3.583h2.764Z" transform="translate(-97.238 -50.199)" fill="#fff"/>
        <path id="Path_2077" data-name="Path 2077" d="M131.429,50.33v7.151H130.18V50.33Z" transform="translate(-105.214 -50.204)" fill="#fff"/>
        <path id="Path_2078" data-name="Path 2078" d="M141.957,50.33v1.249h-2.943c-1.375,0-1.98.687-1.98,2.329s.6,2.319,1.98,2.319H140.2a.909.909,0,0,0,1-1.007.807.807,0,0,0-.881-.91h-1.588V53.22h1.714a1.777,1.777,0,0,1,1.9,2.024,2.021,2.021,0,0,1-2.227,2.237h-1.1c-2.087,0-3.229-1.176-3.229-3.568s1.152-3.583,3.229-3.583Z" transform="translate(-108.103 -50.204)" fill="#fff"/>
        <path id="Path_2079" data-name="Path 2079" d="M153.509,57.346H152.26V51.629A1.451,1.451,0,0,1,153.9,50.07a1.682,1.682,0,0,1,1.738,1.327l2.087,4.565a.479.479,0,0,0,.455.3.386.386,0,0,0,.426-.4V50.2h1.259V55.9a1.46,1.46,0,0,1-1.641,1.569,1.692,1.692,0,0,1-1.748-1.326L154.39,51.58a.44.44,0,0,0-.445-.305.386.386,0,0,0-.436.412Z" transform="translate(-116.604 -50.07)" fill="#fff"/>
        <path id="Path_2080" data-name="Path 2080" d="M176.918,50.32v1.249h-3.583c-.75,0-1.08.349-1.08.9,0,.581.373.847,1.089.847h3.515v1.133h-3.549c-.721,0-1.089.286-1.089.867,0,.562.349.9,1.08.9h3.621v1.249H173.3c-1.694,0-2.382-.838-2.382-1.951a1.644,1.644,0,0,1,1.026-1.641,1.6,1.6,0,0,1-1.007-1.612c0-1.143.712-1.951,2.4-1.951h3.583Z" transform="translate(-126.23 -50.194)" fill="#fff"/>
        <path id="Path_2081" data-name="Path 2081" d="M190.508,50.33a2.053,2.053,0,0,1,2.3,2.14,2.105,2.105,0,0,1-1.515,2.15l1.665,2.861h-1.389l-1.632-2.764h-1.864a.157.157,0,0,0-.179.179v2.585h-1.249V54.653c0-.8.339-1.133,1.123-1.133h2.784a.927.927,0,0,0,1-1,.9.9,0,0,0-1-.944H186.63V50.33Z" transform="translate(-134.335 -50.204)" fill="#fff"/>
        <path id="Path_2082" data-name="Path 2082" d="M202.295,57.346H200.92l2.513-6.357a1.412,1.412,0,0,1,1.506-.92,1.387,1.387,0,0,1,1.481.92l2.416,6.357h-1.389l-2.174-5.751a.338.338,0,0,0-.349-.242.357.357,0,0,0-.358.242Z" transform="translate(-141.707 -50.07)" fill="#fff"/>
      </g>
    </g>
    <g id="Group_2696" data-name="Group 2696" transform="translate(147.637 0.005)">
      <g id="Group_2695" data-name="Group 2695" transform="translate(0)">
        <g id="Group_2607" data-name="Group 2607" clip-path="url(#clip-path)">
          <path id="Path_2084" data-name="Path 2084" d="M221.19,0V0Z" transform="translate(-221.19 -0.005)" fill="#aa9ccb"/>
        </g>
        <g id="Group_2608" data-name="Group 2608" clip-path="url(#clip-path)">
          <rect id="Rectangle_2166" data-name="Rectangle 2166" width="0.387" height="27.072" transform="translate(0 -0.005)" fill="#aa9ccb"/>
        </g>
        <g id="Group_2609" data-name="Group 2609" clip-path="url(#clip-path)">
          <rect id="Rectangle_2167" data-name="Rectangle 2167" width="0.387" height="27.072" transform="translate(0.387 -0.005)" fill="#aa9dcc"/>
        </g>
        <g id="Group_2610" data-name="Group 2610" clip-path="url(#clip-path)">
          <rect id="Rectangle_2168" data-name="Rectangle 2168" width="0.387" height="27.072" transform="translate(0.779 -0.005)" fill="#aa9dcc"/>
        </g>
        <g id="Group_2611" data-name="Group 2611" clip-path="url(#clip-path)">
          <rect id="Rectangle_2169" data-name="Rectangle 2169" width="0.387" height="27.072" transform="translate(1.167 -0.005)" fill="#a99ecd"/>
        </g>
        <g id="Group_2612" data-name="Group 2612" clip-path="url(#clip-path)">
          <rect id="Rectangle_2170" data-name="Rectangle 2170" width="0.387" height="27.072" transform="translate(1.559 -0.005)" fill="#a99ecd"/>
        </g>
        <g id="Group_2613" data-name="Group 2613" clip-path="url(#clip-path)">
          <rect id="Rectangle_2171" data-name="Rectangle 2171" width="0.387" height="27.072" transform="translate(1.946 -0.005)" fill="#a99fce"/>
        </g>
        <g id="Group_2614" data-name="Group 2614" clip-path="url(#clip-path)">
          <rect id="Rectangle_2172" data-name="Rectangle 2172" width="0.387" height="27.072" transform="translate(2.338 -0.005)" fill="#a8a0ce"/>
        </g>
        <g id="Group_2615" data-name="Group 2615" clip-path="url(#clip-path)">
          <rect id="Rectangle_2173" data-name="Rectangle 2173" width="0.387" height="27.072" transform="translate(2.726 -0.005)" fill="#a8a0cf"/>
        </g>
        <g id="Group_2616" data-name="Group 2616" clip-path="url(#clip-path)">
          <rect id="Rectangle_2174" data-name="Rectangle 2174" width="0.387" height="27.072" transform="translate(3.118 -0.005)" fill="#a8a1cf"/>
        </g>
        <g id="Group_2617" data-name="Group 2617" clip-path="url(#clip-path)">
          <rect id="Rectangle_2175" data-name="Rectangle 2175" width="0.387" height="27.072" transform="translate(3.505 -0.005)" fill="#a7a1cf"/>
        </g>
        <g id="Group_2618" data-name="Group 2618" clip-path="url(#clip-path)">
          <rect id="Rectangle_2176" data-name="Rectangle 2176" width="0.387" height="27.072" transform="translate(3.897 -0.005)" fill="#a7a2d0"/>
        </g>
        <g id="Group_2619" data-name="Group 2619" clip-path="url(#clip-path)">
          <rect id="Rectangle_2177" data-name="Rectangle 2177" width="0.387" height="27.072" transform="translate(4.285 -0.005)" fill="#a7a3d0"/>
        </g>
        <g id="Group_2620" data-name="Group 2620" clip-path="url(#clip-path)">
          <rect id="Rectangle_2178" data-name="Rectangle 2178" width="0.387" height="27.072" transform="translate(4.672 -0.005)" fill="#a6a3d1"/>
        </g>
        <g id="Group_2621" data-name="Group 2621" clip-path="url(#clip-path)">
          <rect id="Rectangle_2179" data-name="Rectangle 2179" width="0.387" height="27.072" transform="translate(5.064 -0.005)" fill="#a6a4d1"/>
        </g>
        <g id="Group_2622" data-name="Group 2622" clip-path="url(#clip-path)">
          <rect id="Rectangle_2180" data-name="Rectangle 2180" width="0.387" height="27.072" transform="translate(5.451 -0.005)" fill="#a6a4d2"/>
        </g>
        <g id="Group_2623" data-name="Group 2623" clip-path="url(#clip-path)">
          <rect id="Rectangle_2181" data-name="Rectangle 2181" width="0.387" height="27.072" transform="translate(5.843 -0.005)" fill="#a5a5d2"/>
        </g>
        <g id="Group_2624" data-name="Group 2624" clip-path="url(#clip-path)">
          <rect id="Rectangle_2182" data-name="Rectangle 2182" width="0.387" height="27.072" transform="translate(6.231 -0.005)" fill="#a5a6d3"/>
        </g>
        <g id="Group_2625" data-name="Group 2625" clip-path="url(#clip-path)">
          <rect id="Rectangle_2183" data-name="Rectangle 2183" width="0.387" height="27.072" transform="translate(6.623 -0.005)" fill="#a5a6d3"/>
        </g>
        <g id="Group_2626" data-name="Group 2626" clip-path="url(#clip-path)">
          <rect id="Rectangle_2184" data-name="Rectangle 2184" width="0.387" height="27.072" transform="translate(7.01 -0.005)" fill="#a4a7d4"/>
        </g>
        <g id="Group_2627" data-name="Group 2627" clip-path="url(#clip-path)">
          <rect id="Rectangle_2185" data-name="Rectangle 2185" width="0.387" height="27.072" transform="translate(7.402 -0.005)" fill="#a4a7d4"/>
        </g>
        <g id="Group_2628" data-name="Group 2628" clip-path="url(#clip-path)">
          <rect id="Rectangle_2186" data-name="Rectangle 2186" width="0.387" height="27.072" transform="translate(7.79 -0.005)" fill="#a4a8d4"/>
        </g>
        <g id="Group_2629" data-name="Group 2629" clip-path="url(#clip-path)">
          <rect id="Rectangle_2187" data-name="Rectangle 2187" width="0.387" height="27.072" transform="translate(8.182 -0.005)" fill="#a3a9d5"/>
        </g>
        <g id="Group_2630" data-name="Group 2630" clip-path="url(#clip-path)">
          <rect id="Rectangle_2188" data-name="Rectangle 2188" width="0.387" height="27.072" transform="translate(8.569 -0.005)" fill="#a3a9d5"/>
        </g>
        <g id="Group_2631" data-name="Group 2631" clip-path="url(#clip-path)">
          <rect id="Rectangle_2189" data-name="Rectangle 2189" width="0.387" height="27.072" transform="translate(8.961 -0.005)" fill="#a3aad6"/>
        </g>
        <g id="Group_2632" data-name="Group 2632" clip-path="url(#clip-path)">
          <rect id="Rectangle_2190" data-name="Rectangle 2190" width="0.387" height="27.072" transform="translate(9.348 -0.005)" fill="#a2aad6"/>
        </g>
        <g id="Group_2633" data-name="Group 2633" clip-path="url(#clip-path)">
          <rect id="Rectangle_2191" data-name="Rectangle 2191" width="0.387" height="27.072" transform="translate(9.736 -0.005)" fill="#a2abd7"/>
        </g>
        <g id="Group_2634" data-name="Group 2634" clip-path="url(#clip-path)">
          <rect id="Rectangle_2192" data-name="Rectangle 2192" width="0.387" height="27.072" transform="translate(10.128 -0.005)" fill="#a1acd7"/>
        </g>
        <g id="Group_2635" data-name="Group 2635" clip-path="url(#clip-path)">
          <rect id="Rectangle_2193" data-name="Rectangle 2193" width="0.387" height="27.072" transform="translate(10.515 -0.005)" fill="#a1acd8"/>
        </g>
        <g id="Group_2636" data-name="Group 2636" clip-path="url(#clip-path)">
          <rect id="Rectangle_2194" data-name="Rectangle 2194" width="0.387" height="27.072" transform="translate(10.907 -0.005)" fill="#a1add8"/>
        </g>
        <g id="Group_2637" data-name="Group 2637" clip-path="url(#clip-path)">
          <rect id="Rectangle_2195" data-name="Rectangle 2195" width="0.387" height="27.072" transform="translate(11.295 -0.005)" fill="#a0add8"/>
        </g>
        <g id="Group_2638" data-name="Group 2638" clip-path="url(#clip-path)">
          <rect id="Rectangle_2196" data-name="Rectangle 2196" width="0.387" height="27.072" transform="translate(11.687 -0.005)" fill="#a0aed9"/>
        </g>
        <g id="Group_2639" data-name="Group 2639" clip-path="url(#clip-path)">
          <rect id="Rectangle_2197" data-name="Rectangle 2197" width="0.387" height="27.072" transform="translate(12.074 -0.005)" fill="#a0afd9"/>
        </g>
        <g id="Group_2640" data-name="Group 2640" clip-path="url(#clip-path)">
          <rect id="Rectangle_2198" data-name="Rectangle 2198" width="0.387" height="27.072" transform="translate(12.466 -0.005)" fill="#9fafda"/>
        </g>
        <g id="Group_2641" data-name="Group 2641" clip-path="url(#clip-path)">
          <rect id="Rectangle_2199" data-name="Rectangle 2199" width="0.387" height="27.072" transform="translate(12.854 -0.005)" fill="#9fb0da"/>
        </g>
        <g id="Group_2642" data-name="Group 2642" clip-path="url(#clip-path)">
          <rect id="Rectangle_2200" data-name="Rectangle 2200" width="0.387" height="27.072" transform="translate(13.246 -0.005)" fill="#9eb0db"/>
        </g>
        <g id="Group_2643" data-name="Group 2643" clip-path="url(#clip-path)">
          <rect id="Rectangle_2201" data-name="Rectangle 2201" width="0.387" height="27.072" transform="translate(13.633 -0.005)" fill="#9eb1db"/>
        </g>
        <g id="Group_2644" data-name="Group 2644" clip-path="url(#clip-path)">
          <rect id="Rectangle_2202" data-name="Rectangle 2202" width="0.387" height="27.072" transform="translate(14.02 -0.005)" fill="#9eb1dc"/>
        </g>
        <g id="Group_2645" data-name="Group 2645" clip-path="url(#clip-path)">
          <rect id="Rectangle_2203" data-name="Rectangle 2203" width="0.387" height="27.072" transform="translate(14.412 -0.005)" fill="#9db2dc"/>
        </g>
        <g id="Group_2646" data-name="Group 2646" clip-path="url(#clip-path)">
          <rect id="Rectangle_2204" data-name="Rectangle 2204" width="0.387" height="27.072" transform="translate(14.8 -0.005)" fill="#9db3dc"/>
        </g>
        <g id="Group_2647" data-name="Group 2647" clip-path="url(#clip-path)">
          <rect id="Rectangle_2205" data-name="Rectangle 2205" width="0.387" height="27.072" transform="translate(15.192 -0.005)" fill="#9db3dd"/>
        </g>
        <g id="Group_2648" data-name="Group 2648" clip-path="url(#clip-path)">
          <rect id="Rectangle_2206" data-name="Rectangle 2206" width="0.387" height="27.072" transform="translate(15.579 -0.005)" fill="#9cb4dd"/>
        </g>
        <g id="Group_2649" data-name="Group 2649" clip-path="url(#clip-path)">
          <rect id="Rectangle_2207" data-name="Rectangle 2207" width="0.387" height="27.072" transform="translate(15.971 -0.005)" fill="#9cb4de"/>
        </g>
        <g id="Group_2650" data-name="Group 2650" clip-path="url(#clip-path)">
          <rect id="Rectangle_2208" data-name="Rectangle 2208" width="0.387" height="27.072" transform="translate(16.359 -0.005)" fill="#9bb5de"/>
        </g>
        <g id="Group_2651" data-name="Group 2651" clip-path="url(#clip-path)">
          <rect id="Rectangle_2209" data-name="Rectangle 2209" width="0.387" height="27.072" transform="translate(16.751 -0.005)" fill="#9bb5df"/>
        </g>
        <g id="Group_2652" data-name="Group 2652" clip-path="url(#clip-path)">
          <rect id="Rectangle_2210" data-name="Rectangle 2210" width="0.387" height="27.072" transform="translate(17.138 -0.005)" fill="#9bb6df"/>
        </g>
        <g id="Group_2653" data-name="Group 2653" clip-path="url(#clip-path)">
          <rect id="Rectangle_2211" data-name="Rectangle 2211" width="0.387" height="27.072" transform="translate(17.53 -0.005)" fill="#9ab7df"/>
        </g>
        <g id="Group_2654" data-name="Group 2654" clip-path="url(#clip-path)">
          <rect id="Rectangle_2212" data-name="Rectangle 2212" width="0.261" height="27.072" transform="translate(17.917 -0.005)" fill="#9ab7e0"/>
        </g>
        <g id="Group_2655" data-name="Group 2655" clip-path="url(#clip-path)">
          <rect id="Rectangle_2213" data-name="Rectangle 2213" width="0.324" height="17.632" transform="translate(19.539 0.31)" fill="#98b9e2"/>
        </g>
        <g id="Group_2656" data-name="Group 2656" clip-path="url(#clip-path)">
          <rect id="Rectangle_2214" data-name="Rectangle 2214" width="0.387" height="17.632" transform="translate(19.864 0.31)" fill="#98bae2"/>
        </g>
        <g id="Group_2657" data-name="Group 2657" clip-path="url(#clip-path)">
          <rect id="Rectangle_2215" data-name="Rectangle 2215" width="0.387" height="17.632" transform="translate(20.256 0.31)" fill="#97bae3"/>
        </g>
        <g id="Group_2658" data-name="Group 2658" clip-path="url(#clip-path)">
          <rect id="Rectangle_2216" data-name="Rectangle 2216" width="0.387" height="17.632" transform="translate(20.643 0.31)" fill="#97bbe3"/>
        </g>
        <g id="Group_2659" data-name="Group 2659" clip-path="url(#clip-path)">
          <rect id="Rectangle_2217" data-name="Rectangle 2217" width="0.387" height="17.632" transform="translate(21.035 0.31)" fill="#97bce3"/>
        </g>
        <g id="Group_2660" data-name="Group 2660" clip-path="url(#clip-path)">
          <rect id="Rectangle_2218" data-name="Rectangle 2218" width="0.387" height="17.632" transform="translate(21.423 0.31)" fill="#96bce4"/>
        </g>
        <g id="Group_2661" data-name="Group 2661" clip-path="url(#clip-path)">
          <rect id="Rectangle_2219" data-name="Rectangle 2219" width="0.387" height="17.632" transform="translate(21.815 0.31)" fill="#96bde4"/>
        </g>
        <g id="Group_2662" data-name="Group 2662" clip-path="url(#clip-path)">
          <rect id="Rectangle_2220" data-name="Rectangle 2220" width="0.387" height="17.632" transform="translate(22.202 0.31)" fill="#95bde5"/>
        </g>
        <g id="Group_2663" data-name="Group 2663" clip-path="url(#clip-path)">
          <rect id="Rectangle_2221" data-name="Rectangle 2221" width="0.387" height="17.632" transform="translate(22.594 0.31)" fill="#95bee5"/>
        </g>
        <g id="Group_2664" data-name="Group 2664" clip-path="url(#clip-path)">
          <rect id="Rectangle_2222" data-name="Rectangle 2222" width="0.387" height="17.632" transform="translate(22.981 0.31)" fill="#94bee6"/>
        </g>
        <g id="Group_2665" data-name="Group 2665" clip-path="url(#clip-path)">
          <rect id="Rectangle_2223" data-name="Rectangle 2223" width="0.387" height="17.632" transform="translate(23.369 0.31)" fill="#94bfe6"/>
        </g>
        <g id="Group_2666" data-name="Group 2666" clip-path="url(#clip-path)">
          <rect id="Rectangle_2224" data-name="Rectangle 2224" width="0.387" height="17.632" transform="translate(23.761 0.31)" fill="#94bfe6"/>
        </g>
        <g id="Group_2667" data-name="Group 2667" clip-path="url(#clip-path)">
          <rect id="Rectangle_2225" data-name="Rectangle 2225" width="0.387" height="17.632" transform="translate(24.148 0.31)" fill="#93c0e7"/>
        </g>
        <g id="Group_2668" data-name="Group 2668" clip-path="url(#clip-path)">
          <rect id="Rectangle_2226" data-name="Rectangle 2226" width="0.387" height="17.632" transform="translate(24.54 0.31)" fill="#93c0e7"/>
        </g>
        <g id="Group_2669" data-name="Group 2669" clip-path="url(#clip-path)">
          <rect id="Rectangle_2227" data-name="Rectangle 2227" width="0.387" height="17.632" transform="translate(24.928 0.31)" fill="#92c1e8"/>
        </g>
        <g id="Group_2670" data-name="Group 2670" clip-path="url(#clip-path)">
          <rect id="Rectangle_2228" data-name="Rectangle 2228" width="0.387" height="17.632" transform="translate(25.32 0.31)" fill="#92c2e8"/>
        </g>
        <g id="Group_2671" data-name="Group 2671" clip-path="url(#clip-path)">
          <rect id="Rectangle_2229" data-name="Rectangle 2229" width="0.387" height="17.632" transform="translate(25.707 0.31)" fill="#91c2e9"/>
        </g>
        <g id="Group_2672" data-name="Group 2672" clip-path="url(#clip-path)">
          <rect id="Rectangle_2230" data-name="Rectangle 2230" width="0.387" height="17.632" transform="translate(26.099 0.31)" fill="#91c3e9"/>
        </g>
        <g id="Group_2673" data-name="Group 2673" clip-path="url(#clip-path)">
          <rect id="Rectangle_2231" data-name="Rectangle 2231" width="0.387" height="17.632" transform="translate(26.487 0.31)" fill="#90c3e9"/>
        </g>
        <g id="Group_2674" data-name="Group 2674" clip-path="url(#clip-path)">
          <rect id="Rectangle_2232" data-name="Rectangle 2232" width="0.387" height="17.632" transform="translate(26.879 0.31)" fill="#90c4ea"/>
        </g>
        <g id="Group_2675" data-name="Group 2675" clip-path="url(#clip-path)">
          <rect id="Rectangle_2233" data-name="Rectangle 2233" width="0.387" height="17.632" transform="translate(27.266 0.31)" fill="#8fc4ea"/>
        </g>
        <g id="Group_2676" data-name="Group 2676" clip-path="url(#clip-path)">
          <rect id="Rectangle_2234" data-name="Rectangle 2234" width="0.387" height="17.632" transform="translate(27.658 0.31)" fill="#8fc5eb"/>
        </g>
        <g id="Group_2677" data-name="Group 2677" clip-path="url(#clip-path)">
          <rect id="Rectangle_2235" data-name="Rectangle 2235" width="0.387" height="17.632" transform="translate(28.045 0.31)" fill="#8fc5eb"/>
        </g>
        <g id="Group_2678" data-name="Group 2678" clip-path="url(#clip-path)">
          <rect id="Rectangle_2236" data-name="Rectangle 2236" width="0.387" height="17.632" transform="translate(28.433 0.31)" fill="#8ec6ec"/>
        </g>
        <g id="Group_2679" data-name="Group 2679" clip-path="url(#clip-path)">
          <rect id="Rectangle_2237" data-name="Rectangle 2237" width="0.387" height="17.632" transform="translate(28.825 0.31)" fill="#8ec7ec"/>
        </g>
        <g id="Group_2680" data-name="Group 2680" clip-path="url(#clip-path)">
          <rect id="Rectangle_2238" data-name="Rectangle 2238" width="0.387" height="17.632" transform="translate(29.212 0.31)" fill="#8dc7ed"/>
        </g>
        <g id="Group_2681" data-name="Group 2681" clip-path="url(#clip-path)">
          <rect id="Rectangle_2239" data-name="Rectangle 2239" width="0.387" height="17.632" transform="translate(29.604 0.31)" fill="#8dc8ed"/>
        </g>
        <g id="Group_2682" data-name="Group 2682" clip-path="url(#clip-path)">
          <rect id="Rectangle_2240" data-name="Rectangle 2240" width="0.387" height="17.632" transform="translate(29.992 0.31)" fill="#8cc8ed"/>
        </g>
        <g id="Group_2683" data-name="Group 2683" clip-path="url(#clip-path)">
          <rect id="Rectangle_2241" data-name="Rectangle 2241" width="0.387" height="17.632" transform="translate(30.384 0.31)" fill="#8cc9ee"/>
        </g>
        <g id="Group_2684" data-name="Group 2684" clip-path="url(#clip-path)">
          <rect id="Rectangle_2242" data-name="Rectangle 2242" width="0.387" height="17.632" transform="translate(30.771 0.31)" fill="#8bc9ee"/>
        </g>
        <g id="Group_2685" data-name="Group 2685" clip-path="url(#clip-path)">
          <rect id="Rectangle_2243" data-name="Rectangle 2243" width="0.387" height="17.632" transform="translate(31.163 0.31)" fill="#8bcaef"/>
        </g>
        <g id="Group_2686" data-name="Group 2686" clip-path="url(#clip-path)">
          <rect id="Rectangle_2244" data-name="Rectangle 2244" width="0.387" height="17.632" transform="translate(31.55 0.31)" fill="#8acaef"/>
        </g>
        <g id="Group_2687" data-name="Group 2687" clip-path="url(#clip-path)">
          <rect id="Rectangle_2245" data-name="Rectangle 2245" width="0.387" height="17.632" transform="translate(31.943 0.31)" fill="#8acbf0"/>
        </g>
        <g id="Group_2688" data-name="Group 2688" clip-path="url(#clip-path)">
          <rect id="Rectangle_2246" data-name="Rectangle 2246" width="0.387" height="17.632" transform="translate(32.33 0.31)" fill="#89cbf0"/>
        </g>
        <g id="Group_2689" data-name="Group 2689" clip-path="url(#clip-path)">
          <rect id="Rectangle_2247" data-name="Rectangle 2247" width="0.387" height="17.632" transform="translate(32.722 0.31)" fill="#89ccf0"/>
        </g>
        <g id="Group_2690" data-name="Group 2690" clip-path="url(#clip-path)">
          <rect id="Rectangle_2248" data-name="Rectangle 2248" width="0.387" height="17.632" transform="translate(33.109 0.31)" fill="#88ccf1"/>
        </g>
        <g id="Group_2691" data-name="Group 2691" clip-path="url(#clip-path)">
          <rect id="Rectangle_2249" data-name="Rectangle 2249" width="0.387" height="17.632" transform="translate(33.497 0.31)" fill="#88cdf1"/>
        </g>
        <g id="Group_2692" data-name="Group 2692" clip-path="url(#clip-path)">
          <rect id="Rectangle_2250" data-name="Rectangle 2250" width="0.387" height="17.632" transform="translate(33.889 0.31)" fill="#87cef2"/>
        </g>
        <g id="Group_2693" data-name="Group 2693" clip-path="url(#clip-path)">
          <rect id="Rectangle_2251" data-name="Rectangle 2251" width="0.387" height="17.632" transform="translate(34.276 0.31)" fill="#87cef2"/>
        </g>
        <g id="Group_2694" data-name="Group 2694" clip-path="url(#clip-path)">
          <path id="Path_2172" data-name="Path 2172" d="M292.8,18.282v0Z" transform="translate(-258.132 -0.34)" fill="#87cef2"/>
        </g>
      </g>
    </g>
  </g>
</svg>
